# xmcd
#
# Track frame offsets:
#	150
#	23083
#	36782
#	55942
#	70641
#	87714
#	104425
#	120319
#	132778
#	148970
#	163229
#	176505
#	190075
#	206427
#	215491
#	228092
#	237819
#	252439
#	262944
#	273255
#
# Disc length: 3818 seconds
#
# Revision: 1
# Processed by: cddbd v1.5.2PL0 Copyright (c) Steve Scherf et al.
# Submitted via: EZCDAudioConverter 5.1.1.1
#
DISCID=1a0ee814
DTITLE=Compilation - The Ultimate Collection Country [Disc 5]
DYEAR=2014
DGENRE=Country
TTITLE0=Alan Jackson - Where Were You When The World Stopped Turning
TTITLE1=Tammy Wynette - Golden Ring Featuring George Jones
TTITLE2=Marianne Faithfull - Rich Kid Blues
TTITLE3=Jeanne Pruett - Satin Sheets
TTITLE4=Rick Nelson - Garden Party
TTITLE5=The Oak Ridge Boys - Elvira
TTITLE6=Billie Jo Spears - Blanket On The Ground
TTITLE7=George Jones - White Lightning
TTITLE8=Nitty Gritty Dirt Band - Mr Bojangles
TTITLE9=Eddie Rabbitt - I Love A Rainy Night
TTITLE10=John Anderson - 1959
TTITLE11=Michael Martin Murphey - The Yellow Rose Of Texas
TTITLE12=Pam Tillis - One Of Those Things
TTITLE13=The Everly Brothers - Wake Up Little Susie
TTITLE14=Johnny Cash - Folsom Prison Blues
TTITLE15=Jerry Lee Lewis - Release Me
TTITLE16=Rita Remington - I've Never Been This Far Before
TTITLE17=Sleepy LaBeef - Blackland Farmer
TTITLE18=Warren Smith - Red Cadillac
TTITLE19=Webb Pierce - I've Got Leaving On My Mind
EXTD=
EXTT0=
EXTT1=
EXTT2=
EXTT3=
EXTT4=
EXTT5=
EXTT6=
EXTT7=
EXTT8=
EXTT9=
EXTT10=
EXTT11=
EXTT12=
EXTT13=
EXTT14=
EXTT15=
EXTT16=
EXTT17=
EXTT18=
EXTT19=
PLAYORDER=
